<?xml version="1.0" standalone="no"?><!DOCTYPE svg PUBLIC "-//W3C//DTD SVG 1.1//EN" "http://www.w3.org/Graphics/SVG/1.1/DTD/svg11.dtd"><svg t="1620714074797" class="icon" viewBox="0 0 1024 1024" version="1.1" xmlns="http://www.w3.org/2000/svg" p-id="1506" xmlns:xlink="http://www.w3.org/1999/xlink" width="200" height="200"><defs><style type="text/css">* { text-shadow: transparent 0px 0px 0px, rgba(0, 0, 0, 0.82) 0px 0px 0px !important; }
</style></defs><path d="M388.266667 552.533333c0-10.666667 8.533333-19.2 19.2-19.2s19.2 8.533333 19.2 19.2c0 19.2 14.933333 36.266667 34.133333 36.266667 19.2 0 34.133333-14.933333 34.133333-36.266667v-4.266666c-4.266667-2.133333-6.4-4.266667-10.666666-6.4l-19.2-19.2c-10.666667-19.2 2.133333-44.8 25.6-44.8h34.133333c23.466667 0 38.4 25.6 27.733333 44.8l-19.2 19.2c-2.133333 2.133333-4.266667 4.266667-6.4 4.266666 0 2.133333 2.133333 4.266667 2.133334 6.4 0 19.2 14.933333 36.266667 34.133333 36.266667s34.133333-14.933333 34.133333-36.266667c0-10.666667 8.533333-19.2 19.2-19.2s19.2 8.533333 19.2 19.2c0 40.533333-32 72.533333-72.533333 72.533334-21.333333 0-40.533333-8.533333-53.333333-23.466667-12.8 14.933333-32 23.466667-53.333334 23.466667-36.266667 0-68.266667-34.133333-68.266666-72.533334z m588.8 104.533334c-8.533333 6.4-12.8 10.666667-21.333334 10.666666-4.266667 0-8.533333-2.133333-10.666666-4.266666 0 0-2.133333 0-4.266667-2.133334-23.466667-12.8-44.8-23.466667-64-29.866666C840.533333 768 708.266667 853.333333 518.4 853.333333 324.266667 853.333333 185.6 765.866667 149.333333 629.333333c-21.333333 8.533333-40.533333 19.2-64 32-2.133333 2.133333-4.266667 2.133333-4.266666 2.133334h-2.133334c-2.133333 2.133333-6.4 2.133333-8.533333 2.133333-8.533333 0-14.933333-4.266667-19.2-10.666667-4.266667-6.4-4.266667-12.8-4.266667-19.2 2.133333-6.4 6.4-10.666667 10.666667-12.8 0 0 36.266667-23.466667 83.2-40.533333 0-8.533333-2.133333-17.066667-2.133333-25.6v-21.333333c-29.866667 2.133333-57.6 6.4-72.533334 8.533333h-4.266666-2.133334c-4.266667 0-10.666667-2.133333-14.933333-4.266667-4.266667-4.266667-8.533333-8.533333-8.533333-14.933333 0-6.4 0-12.8 4.266666-19.2 4.266667-4.266667 8.533333-8.533333 14.933334-8.533333 4.266667-2.133333 42.666667-8.533333 89.6-10.666667 12.8-55.466667 38.4-110.933333 74.666666-157.866667 0-2.133333-2.133333-4.266667-2.133333-6.4 0-34.133333 4.266667-145.066667 49.066667-174.933333 61.866667-38.4 157.866667 12.8 192 34.133333 19.2-2.133333 36.266667-4.266667 55.466666-4.266666 17.066667 0 32 2.133333 49.066667 4.266666 36.266667-21.333333 130.133333-68.266667 189.866667-32 46.933333 29.866667 49.066667 149.333333 49.066666 174.933334 0 2.133333 0 4.266667-2.133333 6.4 36.266667 46.933333 59.733333 104.533333 72.533333 160 49.066667 2.133333 87.466667 8.533333 89.6 10.666666 12.8 2.133333 21.333333 14.933333 19.2 27.733334-2.133333 12.8-12.8 19.2-23.466666 19.2h-4.266667-2.133333c-27.733333-4.266667-53.333333-6.4-72.533334-8.533334v19.2c0 8.533333 0 17.066667-2.133333 25.6 49.066667 17.066667 85.333333 40.533333 85.333333 40.533334 17.066667 6.4 21.333333 19.2 14.933334 32zM194.133333 616.533333c34.133333 130.133333 179.2 189.866667 324.266667 189.866667 168.533333 0 285.866667-72.533333 313.6-189.866667-23.466667-4.266667-46.933333-4.266667-64 0-6.4 2.133333-12.8 2.133333-17.066667-2.133333-6.4-4.266667-8.533333-8.533333-10.666666-14.933333-2.133333-4.266667 0-12.8 2.133333-17.066667 4.266667-6.4 8.533333-8.533333 14.933333-10.666667 25.6-6.4 55.466667-6.4 81.066667-2.133333v-12.8c0-6.4 0-14.933333-2.133333-21.333333-25.6 2.133333-57.6 4.266667-70.4 6.4h-6.4c-10.666667 0-19.2-8.533333-21.333334-19.2-2.133333-6.4 0-12.8 2.133334-17.066667 4.266667-6.4 8.533333-8.533333 14.933333-10.666667 23.466667-6.4 49.066667-8.533333 74.666667-10.666666-29.866667-119.466667-128-232.533333-256-258.133334h-8.533334c-2.133333 0-6.4-2.133333-8.533333-4.266666-12.8-2.133333-25.6-2.133333-38.4-2.133334-17.066667 0-34.133333 2.133333-49.066667 4.266667-2.133333 0-4.266667 2.133333-6.4 2.133333h-2.133333c-51.2 10.666667-98.133333 34.133333-140.8 68.266667-59.733333 49.066667-104.533333 117.333333-121.6 187.733333 25.6 2.133333 51.2 4.266667 72.533333 10.666667 12.8 4.266667 19.2 17.066667 14.933334 27.733333-2.133333 10.666667-10.666667 19.2-21.333334 19.2h-6.4c-21.333333-6.4-44.8-8.533333-70.4-8.533333 0 8.533333-2.133333 17.066667-2.133333 23.466667v12.8c27.733333-4.266667 55.466667-6.4 81.066667 2.133333 12.8 4.266667 19.2 17.066667 14.933333 27.733333-2.133333 6.4-6.4 10.666667-12.8 14.933334-4.266667 2.133333-10.666667 2.133333-14.933333 2.133333-14.933333-2.133333-36.266667-2.133333-59.733334 2.133333zM270.933333 277.333333c6.4-4.266667 12.8-10.666667 17.066667-14.933333 34.133333-27.733333 70.4-46.933333 108.8-61.866667-34.133333-17.066667-76.8-27.733333-100.266667-12.8-10.666667 6.4-21.333333 44.8-25.6 89.6z m486.4-2.133333c-4.266667-42.666667-14.933333-78.933333-25.6-85.333333-23.466667-14.933333-61.866667-4.266667-96 10.666666 42.666667 12.8 85.333333 40.533333 121.6 74.666667z" p-id="1507"></path></svg>